<?xml version="1.0" encoding="utf-8"?>
<!-- Generator: Adobe Illustrator 19.2.1, SVG Export Plug-In . SVG Version: 6.00 Build 0)  -->
<svg class="lotus-svg" fill="blue" version="1.1" id="Layer_1" xmlns="http://www.w3.org/2000/svg" xmlns:xlink="http://www.w3.org/1999/xlink" x="0px" y="0px"
	 width="864px" height="864px" viewBox="0 0 864 864" enable-background="new 0 0 864 864" xml:space="preserve">
                                                                                         
<g>
	<path d="M137.9487,268.6796c-0.0886,1.1423-0.2068,2.2748-0.3545,3.4172c-4.1558,33.8369,3.0234,65.5862,18.5139,95.5236
		c12.2014,23.5658,29.6714,42.6115,51.7502,57.5013c18.947,12.7823,39.8047,21.35,61.2041,28.8245
		c6.5486,2.2847,13.0088,4.9631,20.4536,5.7412c-0.6006-0.778-0.8171-1.2703-1.1914-1.4968
		c-4.8845-3.0037-9.8184-5.9382-14.7026-8.9614c-25.1318-15.5498-50.155-31.385-70.0869-53.5721
		c-25.5945-28.4799-38.7805-62.1986-40.0608-100.5558c-0.1379-3.9587,1.1028-4.658,4.7566-4.0574
		c16.2192,2.6787,32.1035,6.5586,47.3875,12.6741c7.386,2.9543,14.7029,6.0959,23.3,9.6707
		c-4.9141-6.4011-9.6707-11.1182-14.772-15.2937c-15.5103-12.6543-33.1179-21.6848-51.6812-28.9524
		c-8.6167-3.3682-17.5586-5.3376-26.6284-6.8345C140.2334,261.3824,138.3723,262.9975,137.9487,268.6796z"/>
	<path d="M85.9317,335.9499c-2.0583,0.571-1.625,2.5406-1.9006,4.1064c-2.0287,11.65-2.5112,23.4181-3.2302,35.196
		c-1.8711,30.6267,19.1639,54.4189,45.7727,61.2632c20.0205,5.1602,40.4448,6.145,60.9973,5.8298
		c1.5264-0.0195,3.2693,0.394,4.6086-0.8862c-0.1282-0.3545-0.1477-0.7781-0.3545-0.8962
		c-0.9749-0.6006-1.9795-1.1719-3.0037-1.6642c-17.6274-8.548-32.9507-20.0206-45.9399-34.8119
		c-18.5139-21.0842-36.0823-42.907-52.7449-65.4781C89.0633,337.1611,88.1474,335.3295,85.9317,335.9499z"/>
	<path d="M18.4331,558.1833c7.7502,10.6946,16.574,20.2471,27.3572,28.0071c14.8112,10.675,29.7798,21.0054,47.3286,26.7664
		c36.0037,11.8174,72.47,9.572,109.0349,3.4072c2.7966-0.4628,5.6721-1.2014,8.5378-3.5944
		c-1.8218-0.2758-2.9148-0.5515-4.0178-0.5909c-22.384-0.9651-44.2659-5.4065-66.1279-9.7592
		c-32.9114-6.5487-61.47-22.1674-87.5076-42.8871c-2.5801-2.0483-1.2408-3.1121,0.4235-4.4512
		c7.4056-5.9678,14.8307-11.9159,22.1969-17.9329c0.9159-0.7583,2.6787-1.3787,1.9893-2.9543
		c-0.6499-1.4772-2.2256-0.9454-3.5255-0.6895c-18.9274,3.7029-36.8898,10.1925-54.2416,18.573
		C16.2174,553.8403,16.4143,555.3963,18.4331,558.1833z"/>
	<path d="M59.0895,413.0009c-0.4923,1.802-0.8568,2.7278-0.975,3.6731c-0.7188,5.889-0.4628,11.7977-0.2855,17.6965
		c1.359,46.1272,17.5782,86.2471,50.0563,119.0205c24.7969,25.0232,54.0547,42.4146,89.2703,49.9382
		c34.8318,7.4351,68.718,4.786,102.6633-4.5398c-13.4126,0.9847-26.8057-0.0396-40.2085-0.9553
		c-16.5837-1.1227-33.0098-3.2498-48.7563-8.7842c-36.0923-12.6742-65.3696-34.3098-86.7295-66.3644
		c-9.7297-14.6044-20.4443-28.5782-27.5444-44.7878c-0.7484-1.7036-2.334-3.9293-0.4727-5.4261
		c1.615-1.29,3.23,0.8765,4.5792,1.7628c12.349,8.1244,25.1808,15.2247,38.9381,20.838
		c17.2534,7.0313,34.7432,13.0876,53.3948,14.5156c32.3696,2.4816,64.8183,4.0474,97.0698,8.0652
		c19.1145,2.3833,37.9336,6.3816,55.6794,13.8855c18.1199,7.6714,35.8066,16.3867,51.8289,28.0564
		c1.6152,1.1719,3.2893,2.6195,6.3813,2.6195c-2.2944-2.8165-4.0571-5.121-5.9678-7.2872
		c-17.1055-19.4889-34.5757-38.6921-55.2559-54.478c-11.6895-8.9222-23.9597-17.2928-38.3967-21.5864
		c-23.3489-6.9526-47.3579-10.5569-71.3274-14.3778c-30.814-4.9141-61.9429-6.6866-93.0322-8.7449
		c-24.5801-1.6348-46.2748-9.9266-64.5228-26.8156C70.0304,423.8826,64.6338,418.7814,59.0895,413.0009z"/>
	<path d="M734.3418,623.7233c27.8201-1.4377,53.7295-9.8085,75.7197-28.1549c12.8315-10.7145,23.2212-23.5559,33.709-36.3876
		c2.4128-2.9543,0.9651-4.3135-1.6741-5.5049c-17.3125-7.8586-33.9946-17.1648-52.3608-22.5811
		c-1.6345-0.4825-3.1907-1.1128-4.9829-0.4038c0.7781,2.0386,2.2649,2.8461,3.5156,3.8604
		c7.4941,6.1057,14.9587,12.2705,22.5317,18.2874c3.053,2.4128,3.2104,4.4709,0.2463,7.1101
		c-5.0225,4.4612-9.8281,9.1683-15.54,12.812c-12.9792,8.282-25.2595,17.9131-40.0313,22.9553
		c-27.3079,9.3258-55.384,14.9292-84.238,16.5146c-6.6472,0.3645-13.2944,0.9355-19.9417,1.4182
		c-0.01,0.4332-0.0295,0.8763-0.0493,1.3196c0.8862,0.325,1.7627,0.6892,2.6589,0.9651
		C680.179,624.009,707.3193,625.1218,734.3418,623.7233z"/>
	<path d="M777.3394,516.6457c20.7002-32.4386,29.8093-68.2058,31.6213-106.1986c0.0984-1.9794,1.1326-4.9337-1.1423-5.761
		c-2.0088-0.7386-2.8262,2.265-4.0474,3.6437c-13.8953,15.7368-30.7056,27.6722-49.6328,36.3186
		c-15.2839,6.9919-31.8086,10.0054-48.53,11.8862c-30.9714,3.4961-62.2185,3.3286-93.1111,7.9374
		c-20.9756,3.1316-41.8628,6.2828-61.1252,15.7269c-25.9292,12.7234-51.563,25.9391-72.5388,46.5013
		c-9.3652,9.188-17.6965,19.1934-25.6831,29.5238c0.2759,0.3248,0.5615,0.6499,0.8469,0.9846
		c4.0574-2.324,8.1541-4.5989,12.1917-6.9722c34.29-20.1486,71.2192-31.5327,111.0339-33.0886
		c30.3313-1.1816,60.5247-3.1021,90.3831-9.2963c30.2427-6.2731,59.4807-14.7422,85.4297-32.2123
		c0.6304-0.4332,1.1917-1.3884,2.0876-0.8271c1.0637,0.6499,0.6304,1.7036,0.384,2.6393
		c-0.9946,3.9095-3.5352,7.0116-5.4458,10.4386c-9.1978,16.4656-18.1692,33.0688-30.0654,47.8604
		c-8.4395,10.4978-16.9282,21.0841-27.9873,28.9033c-26.8748,18.9963-56.4771,31.1091-89.5657,33.9552
		c-9.3455,0.8075-18.6616,2.0188-28.2927,3.0725c0.5515,0.5908,0.7188,0.9355,0.9749,1.024
		c0.7681,0.266,1.5757,0.4531,2.3733,0.6304c17.7163,4.0474,35.5605,4.7565,53.7395,4.0573
		c29.7107-1.1324,56.8513-9.9166,81.7466-25.4073C739.5632,565.4614,760.4897,543.0576,777.3394,516.6457z"/>
	<path d="M675.0933,427.8791c-5.7217,3.0725-12.5854,4.4807-16.958,10.1235c1.6643,1.2507,3.3384,0.6499,4.8848,0.6598
		c9.3354,0.0591,18.6714-0.1182,28.0071,0.1183c19.1243,0.4727,37.9336-0.197,55.5415-9.2767
		c16.3374-8.4198,28.0269-20.0403,30.5774-39.1942c1.0635-8.0063,0.1084-16.1406,1.5361-24.009
		c2.0583-11.3446,0.1873-22.5613,0.0298-33.8369c-0.0198-1.3788,0.0295-3.368-1.5955-3.7717
		c-1.8318-0.453-2.1174,1.6741-2.8953,2.7968c-13.8953,20.2865-28.6177,39.8934-45.5264,57.8361
		C713.2732,405.6821,694.6804,417.3715,675.0933,427.8791z"/>
	<path d="M665.9644,395.0466c-18.228,17.4109-39.9819,30.0947-61.0269,43.6553c-9.5029,6.1252-20.2764,9.8478-29.9668,16.0618
		c0.4531-0.0295,0.9453,0.0393,1.3589-0.0986c19.9617-6.4601,39.5586-13.7671,58.3877-23.1718
		c25.437-12.7037,48.8647-28.0367,68.521-48.786c32.0547-33.8271,43.0449-73.9963,36.2104-119.572
		c-1.2705-8.4789-1.3296-8.4888-9.1782-6.1548c-1.7234,0.5022-3.4072,1.162-5.0913,1.7825
		c-19.1047,6.9918-37.4905,15.6284-55.8369,24.3438c-10.0054,4.7563-19.873,9.8478-27.6724,18.4448
		c2.1172,0.7977,3.4663-0.4038,4.9043-0.9453c18.4941-7.0609,37.2935-12.3689,57.4321-11.2659
		c3.8013,0.2068,5.0913,1.1128,5.1111,4.9928c0.0591,13.2355-1.8218,26.3035-5.4163,38.8693
		C696.8472,357.1423,683.9563,377.862,665.9644,395.0466z"/>
	<path d="M613.8308,278.0861c-5.6033-23.9596-16.5442-45.5361-29.0608-66.384c-8.1343-13.5801-21.5566-21.8228-33.5513-31.4438
		c-2.2847-1.8318-4.3921-1.556-6.7754,0.7877c-11.9648,11.7877-21.8718,25.2202-31.5522,38.83
		c-5.2883,7.4252-10.8621,14.7913-14.0232,24.9247c11.8369-7.829,23.2209-14.3187,34.8118-20.4243
		c8.6958-4.5891,8.7842-4.4513,15.2544,2.6984c2.0876,2.3043,4.2542,4.5594,6.1155,7.0411
		c11.5613,15.402,21.1924,31.9757,29.2773,49.4261c7.3464,15.8549,11.4729,32.6454,9.907,50.0957
		c-1.6445,18.3267-6.2041,36.2103-13.4324,53.1978c-9.2571,21.7439-22.9158,40.8191-37.2839,59.4119
		c-6.667,8.6167-13.1958,17.332-20.0007,26.2837c1.1521,0.2758,1.4871,0.4629,1.7429,0.3939
		c0.4629-0.1378,0.8965-0.4038,1.3101-0.6598c36.3186-22.3447,64.1189-52.3313,81.2539-91.614
		c8.0063-18.3564,12.625-37.6482,12.1523-57.8066C619.6213,307.7281,617.2876,292.8481,613.8308,278.0861z"/>
	<path d="M433.1399,201.6259c-2.2551-1.3491-3.8406-1.4871-6.0762,0.3743c-5.4065,4.5004-11.1672,8.5675-16.7314,12.871
		c-17.7358,13.7279-35.4519,27.505-51.7795,42.8971c-16.5837,15.6284-29.4353,34.3392-41.3313,53.572
		c-6.8049,11-12.1326,22.9945-14.4368,35.8755c-3.5552,19.7842-1.2705,39.5488,1.8413,59.1558
		c2.5015,15.7073,11.5615,28.8047,18.4941,42.6804c6.5293,13.0679,15.855,24.4519,24.0288,36.5254
		c12.9399,19.1145,28.4207,35.8263,47.5942,48.9336c-0.2954-0.384-0.5613-0.7877-0.8862-1.1422
		c-14.3481-15.402-26.9436-31.9364-37.2837-50.4601c-13.9248-24.9642-21.4978-51.4745-21.9016-79.7672
		c-0.5317-37.5594,14.3088-69.6534,38.7314-97.3456c16.1602-18.3267,35.3142-33.6696,53.3455-50.1154
		c2.718-2.4718,4.6875-2.4028,7.4351,0.1871c11.8469,11.1083,23.2803,22.6401,34.0637,34.7823
		c15.53,17.4897,29.1494,36.2991,38.7708,57.7771c5.6821,12.7036,9.2175,25.9785,9.5327,39.8837
		c0.6694,29.75-3.6931,58.5254-17.8049,85.2129c-6.8835,13.009-12.5657,26.658-21.4287,38.623
		c-3.3088,4.4611-7.3562,8.3804-10.094,13.3142c7.3562-6.0564,14.5747-12.1816,20.8577-19.3213
		c21.1628-24.009,38.6721-50.5291,53.2175-78.9399c12.7134-24.8264,16.9675-51.5532,12.4673-78.8909
		c-4.5693-27.7412-18.8882-51.5237-35.4324-73.7698c-13.5999-18.3071-31.5032-32.3696-48.7664-47.0035
		C458.1631,217.8649,445.9714,209.3072,433.1399,201.6259z"/>
	<path d="M311.6975,231.9196c11.4827-11.9255,7.2971-10.7241,21.3796-2.9641c9.8674,5.436,19.2524,11.778,30.0356,15.8156
		c-13.3733-25.2399-31.0007-47.0626-51.6416-66.5317c-1.5562-1.4673-2.3931-0.6992-3.6831,0.256
		c-3.7227,2.7574-6.9033,6.0762-9.8774,9.5525c-25.0923,29.3365-42.6411,62.6023-52.5972,99.9551
		c-5.9185,22.2264-6.9722,44.4136-2.8657,67.093c2.9543,16.2883,10.1631,30.5577,17.6965,45.0044
		c12.4673,23.9302,30.1934,43.1235,50.9722,59.7664c5.5049,4.402,10.8328,9.2668,17.7458,12.3491
		c0.0195-2.6589-1.5659-4.0277-2.6689-5.4951c-5.042-6.657-10.7537-12.8711-15.2441-19.8728
		c-7.7996-12.162-16.5247-23.6348-24.7969-35.452c-22.8567-32.6553-29.7305-68.3929-17.7654-106.5336
		C277.0037,277.3771,291.5488,252.8561,311.6975,231.9196z"/>
	<path d="M482.2559,669.0024c12.8218,7.6321,26.9631,11,41.3015,13.6687c30.7449,5.7019,58.3679-3.4664,84.4351-18.8881
		c9.3455-5.5245,16.7314-13.2552,22.01-22.7484c4.2148-7.5829,7.8584-15.4906,11.8467-23.2014
		c1.7825-3.4468,0.8076-4.7761-2.9839-4.7761c-9.3455-0.01-18.7009-0.0198-28.0562-0.266
		c-26.9929-0.709-52.8828-7.11-78.428-15.3134c-27.2195-8.7349-53.6707-19.3607-79.5505-31.4539
		c-1.0144-0.4727-2.0483-0.9255-4.2739-1.9302c3.0332,3.9786,6.2827,5.702,9.1484,7.8389c2.8855,2.147,5.8398,4.2445,8.9224,6.1155
		c20.4734,12.4083,41.0554,24.6196,62.4348,35.4719c12.8022,6.4995,26.2839,10.0643,40.4548,11.4332
		c2.4521,0.2363,4.9043,0.4628,7.3464,0.778c1.0735,0.1379,2.531-0.0886,2.8459,1.3295c0.2561,1.1128-0.9255,1.6346-1.6741,2.2157
		c-10.4089,8.2131-21.9014,14.1611-34.6445,18.1199c-28.4797,8.8237-51.8879-1.6445-73.2971-18.9373
		c-14.8997-12.0438-26.4807-27.2488-37.4414-42.8773c-0.6401-0.9059-1.3394-1.7726-2.6587-3.5057
		c-1.3198,1.7332-2.019,2.5999-2.6592,3.5057c-10.9604,15.6285-22.5415,30.8335-37.4412,42.8773
		c-21.4092,17.2927-44.8174,27.761-73.2971,18.9373c-12.7432-3.9587-24.2354-9.9067-34.6445-18.1199
		c-0.7485-0.5811-1.9302-1.1029-1.6743-2.2157c0.3152-1.4181,1.7727-1.1915,2.8462-1.3295c2.4421-0.3152,4.8943-0.5416,7.3464-0.778
		c14.1709-1.3689,27.6526-4.9337,40.4548-11.4332c21.3794-10.8523,41.9614-23.0636,62.4351-35.4719
		c3.0823-1.871,6.0366-3.9685,8.9219-6.1155c2.8657-2.1368,6.1157-3.8602,9.1487-7.8389c-2.2256,1.0046-3.2595,1.4575-4.2739,1.9302
		c-25.8801,12.0931-52.3313,22.719-79.5505,31.4539c-25.5452,8.2034-51.4351,14.6044-78.4277,15.3134
		c-9.3555,0.2462-18.7109,0.256-28.0566,0.266c-3.7913,0-4.7661,1.3293-2.9839,4.7761c3.9885,7.7108,7.6321,15.6185,11.8472,23.2014
		c5.2783,9.4932,12.6641,17.2239,22.0098,22.7484c26.0671,15.4216,53.6902,24.59,84.435,18.8881
		c14.3384-2.6687,28.4797-6.0366,41.3015-13.6687c18.0906-10.7736,31.4736-26.0967,42.9463-43.2811
		c4.6819-7.0149,7.8459-14.4257,9.3162-22.3917c1.47,7.9661,4.634,15.3768,9.3159,22.3917
		C450.7822,642.9057,464.1653,658.2288,482.2559,669.0024z"/>
</g>
</svg>
