<?xml version="1.0" encoding="utf-8"?>
<!-- Generator: Adobe Illustrator 19.2.1, SVG Export Plug-In . SVG Version: 6.00 Build 0)  -->
	<svg class="lotus-svg" width="1200" height="1200" viewBox="0 0 1200 1200" fill="none" xmlns="http://www.w3.org/2000/svg" x="0px" y="0px">
<g filter="url(#filter0_d)">
<path d="M191.595 373.166C191.472 374.753 191.308 376.325 191.103 377.912C185.331 424.908 195.302 469.004 216.817 510.584C233.763 543.314 258.027 569.766 288.692 590.447C315.007 608.2 343.976 620.099 373.698 630.481C382.793 633.654 391.765 637.374 402.105 638.454C401.271 637.374 400.971 636.69 400.451 636.376C393.667 632.204 386.814 628.128 380.03 623.929C345.125 602.332 310.371 580.339 282.688 549.524C247.14 509.968 228.826 463.137 227.048 409.863C226.856 404.365 228.579 403.393 233.654 404.228C256.181 407.948 278.242 413.337 299.47 421.83C309.728 425.934 319.891 430.297 331.831 435.262C325.006 426.372 318.399 419.82 311.314 414.021C289.772 396.445 265.317 383.903 239.535 373.809C227.567 369.131 215.148 366.396 202.551 364.317C194.768 363.031 192.184 365.274 191.595 373.166Z" fill="url(#paint0_linear)"/>
<path d="M119.35 466.597C116.491 467.39 117.093 470.126 116.71 472.3C113.892 488.481 113.222 504.825 112.223 521.184C109.625 563.721 138.84 596.765 175.797 606.271C203.603 613.438 231.97 614.806 260.515 614.368C262.635 614.341 265.056 614.916 266.916 613.138C266.738 612.645 266.711 612.057 266.423 611.893C265.069 611.059 263.674 610.265 262.252 609.581C237.769 597.709 216.487 581.775 198.446 561.232C172.733 531.948 148.332 501.639 125.19 470.29C123.699 468.279 122.427 465.735 119.35 466.597Z" fill="url(#paint1_linear)"/>
<path d="M25.6015 775.254C36.3656 790.108 48.6209 803.375 63.5976 814.153C84.1687 828.979 104.958 843.327 129.332 851.328C179.337 867.741 229.985 864.623 280.769 856.061C284.653 855.418 288.647 854.392 292.627 851.068C290.097 850.685 288.579 850.302 287.047 850.248C255.958 848.907 225.566 842.739 195.203 836.693C149.492 827.598 109.828 805.905 73.6643 777.128C70.0808 774.283 71.9409 772.806 74.2525 770.946C84.538 762.657 94.8507 754.396 105.081 746.039C106.354 744.986 108.802 744.124 107.844 741.936C106.942 739.884 104.753 740.623 102.948 740.978C76.6598 746.121 51.712 755.134 27.6123 766.774C22.5241 769.222 22.7976 771.383 25.6015 775.254Z" fill="url(#paint2_linear)"/>
<path d="M82.0686 573.612C81.3849 576.115 80.8786 577.401 80.7145 578.714C79.7161 586.893 80.0717 595.099 80.3179 603.292C82.2054 667.358 104.732 723.08 149.841 768.598C184.281 803.353 224.917 827.507 273.827 837.957C322.205 848.283 369.269 844.604 416.415 831.652C397.786 833.019 379.185 831.597 360.57 830.325C337.537 828.765 314.723 825.811 292.853 818.124C242.725 800.521 202.062 770.472 172.395 725.952C158.882 705.668 144 686.26 134.139 663.747C133.1 661.38 130.897 658.289 133.483 656.21C135.726 654.419 137.969 657.428 139.843 658.659C156.994 669.943 174.816 679.804 193.923 687.6C217.886 697.366 242.178 705.778 268.083 707.761C313.04 711.208 358.108 713.382 402.902 718.962C429.45 722.273 455.587 727.826 480.234 738.248C505.401 748.903 529.966 761.007 552.219 777.215C554.462 778.843 556.787 780.853 561.082 780.853C557.895 776.941 555.447 773.741 552.793 770.732C529.036 743.664 504.771 716.993 476.049 695.068C459.813 682.676 442.772 671.051 422.72 665.087C390.291 655.431 356.945 650.425 323.654 645.118C280.857 638.293 237.622 635.831 194.443 632.972C160.304 630.702 130.172 619.186 104.828 595.729C97.2643 588.726 89.7691 581.641 82.0686 573.612Z" fill="url(#paint3_linear)"/>
<path d="M1019.92 866.282C1058.56 864.286 1094.54 852.659 1125.09 827.178C1142.91 812.297 1157.34 794.462 1171.9 776.64C1175.25 772.537 1173.24 770.649 1169.58 768.994C1145.53 758.079 1122.36 745.154 1096.85 737.631C1094.58 736.961 1092.42 736.086 1089.93 737.071C1091.01 739.902 1093.08 741.024 1094.82 742.432C1105.23 750.912 1115.59 759.475 1126.11 767.832C1130.35 771.183 1130.57 774.041 1126.45 777.707C1119.48 783.903 1112.8 790.44 1104.87 795.501C1086.84 807.004 1069.79 820.38 1049.27 827.384C1011.34 840.336 972.348 848.119 932.273 850.32C923.041 850.827 913.809 851.62 904.576 852.29C904.562 852.892 904.535 853.507 904.508 854.123C905.739 854.574 906.956 855.08 908.201 855.463C944.693 866.679 982.388 868.225 1019.92 866.282Z" fill="url(#paint4_linear)"/>
<path d="M1079.64 717.563C1108.39 672.51 1121.04 622.833 1123.56 570.065C1123.69 567.316 1125.13 563.213 1121.97 562.064C1119.18 561.038 1118.04 565.21 1116.35 567.125C1097.05 588.981 1073.7 605.558 1047.41 617.567C1026.19 627.278 1003.24 631.463 980.011 634.076C936.995 638.931 893.597 638.699 850.69 645.1C821.557 649.449 792.548 653.826 765.794 666.943C729.781 684.614 694.179 702.969 665.046 731.528C652.039 744.289 640.467 758.185 629.375 772.533C629.758 772.984 630.155 773.436 630.551 773.901C636.186 770.673 641.876 767.513 647.484 764.217C695.109 736.233 746.4 720.422 801.698 718.261C843.825 716.62 885.76 713.952 927.23 705.349C969.234 696.636 1009.84 684.874 1045.88 660.61C1046.76 660.008 1047.54 658.682 1048.78 659.461C1050.26 660.364 1049.66 661.827 1049.31 663.127C1047.93 668.557 1044.4 672.865 1041.75 677.625C1028.98 700.494 1016.52 723.554 999.994 744.098C988.272 758.678 976.482 773.381 961.123 784.241C923.797 810.625 882.682 827.448 836.726 831.401C823.746 832.523 810.807 834.205 797.43 835.668C798.196 836.489 798.429 836.968 798.784 837.091C799.851 837.46 800.973 837.72 802.081 837.966C826.687 843.588 851.47 844.572 876.719 843.601C917.984 842.029 955.679 829.828 990.256 808.313C1027.17 785.363 1056.24 754.246 1079.64 717.563Z" fill="url(#paint5_linear)"/>
<path d="M937.629 594.276C929.682 598.544 920.15 600.5 914.076 608.337C916.388 610.074 918.713 609.239 920.861 609.253C933.827 609.335 946.793 609.089 959.76 609.417C986.321 610.074 1012.45 609.144 1036.9 596.533C1059.59 584.839 1075.83 568.699 1079.37 542.097C1080.85 530.977 1079.52 519.679 1081.5 508.751C1084.36 492.995 1081.76 477.416 1081.54 461.755C1081.52 459.84 1081.59 457.078 1079.33 456.517C1076.78 455.888 1076.39 458.842 1075.31 460.401C1056.01 488.577 1035.56 515.809 1012.08 540.729C990.657 563.447 964.834 579.682 937.629 594.276Z" fill="#82A5FF"/>
<path d="M924.951 548.676C899.634 572.858 869.42 590.474 840.191 609.308C826.992 617.815 812.029 622.986 798.57 631.616C799.2 631.575 799.883 631.671 800.458 631.479C828.182 622.507 855.4 612.358 881.552 599.296C916.881 581.652 949.419 560.356 976.72 531.538C1021.24 484.556 1036.5 428.765 1027.01 365.466C1025.25 353.689 1025.17 353.676 1014.26 356.917C1011.87 357.615 1009.53 358.531 1007.19 359.393C980.659 369.104 955.123 381.099 929.642 393.204C915.746 399.81 902.041 406.881 891.208 418.822C894.149 419.93 896.022 418.261 898.02 417.509C923.706 407.702 949.816 400.33 977.786 401.862C983.066 402.149 984.858 403.407 984.885 408.796C984.967 427.179 982.355 445.329 977.363 462.781C967.843 496.031 949.939 524.808 924.951 548.676Z" fill="url(#paint6_linear)"/>
<path d="M852.543 386.231C844.761 352.953 829.565 322.986 812.181 294.031C800.883 275.169 782.241 263.721 765.581 250.359C762.408 247.815 759.481 248.198 756.171 251.453C739.553 267.825 725.794 286.481 712.349 305.383C705.004 315.696 697.262 325.927 692.872 340.001C709.312 329.127 725.123 320.114 741.222 311.634C753.299 305.26 753.422 305.452 762.408 315.382C765.308 318.582 768.317 321.714 770.902 325.161C786.96 346.553 800.336 369.572 811.565 393.808C821.769 415.829 827.5 439.149 825.325 463.386C823.041 488.839 816.708 513.678 806.669 537.271C793.812 567.471 774.841 593.965 754.885 619.788C745.626 631.756 736.558 643.86 727.107 656.293C728.707 656.676 729.172 656.936 729.527 656.84C730.17 656.649 730.773 656.279 731.347 655.924C781.79 624.889 820.401 583.241 844.2 528.682C855.32 503.187 861.735 476.393 861.078 448.395C860.585 427.4 857.344 406.733 852.543 386.231Z" fill="url(#paint7_linear)"/>
<path d="M601.583 280.036C598.451 278.162 596.249 277.97 593.144 280.556C585.635 286.806 577.634 292.455 569.906 298.432C545.273 317.499 520.667 336.634 497.99 358.011C474.957 379.718 457.108 405.705 440.585 432.417C431.134 447.695 423.735 464.354 420.534 482.244C415.597 509.722 418.77 537.173 423.092 564.405C426.566 586.221 439.149 604.411 448.778 623.683C457.846 641.833 470.799 657.644 482.151 674.413C500.123 700.961 521.624 724.172 548.254 742.376C547.844 741.843 547.475 741.282 547.023 740.79C527.096 719.398 509.602 696.434 495.241 670.706C475.901 636.034 465.382 599.214 464.822 559.919C464.083 507.753 484.695 463.178 518.615 424.716C541.06 399.263 567.663 377.953 592.706 355.112C596.481 351.679 599.217 351.775 603.033 355.372C619.487 370.8 635.367 386.816 650.343 403.68C671.913 427.972 690.829 454.096 704.192 483.926C712.084 501.57 716.994 520.008 717.432 539.32C718.361 580.64 712.302 620.606 692.703 657.672C683.142 675.74 675.25 694.697 662.941 711.315C658.345 717.511 652.724 722.954 648.921 729.807C659.138 721.395 669.164 712.888 677.89 702.971C707.283 669.626 731.601 632.792 751.803 593.333C769.461 558.852 775.369 521.731 769.119 483.762C762.773 445.233 742.885 412.201 719.907 381.304C701.019 355.877 676.153 336.346 652.176 316.021C636.338 302.59 619.405 290.704 601.583 280.036Z" fill="url(#paint8_linear)"/>
<path d="M432.913 322.111C448.861 305.547 443.048 307.216 462.607 317.994C476.312 325.544 489.347 334.352 504.323 339.96C485.749 304.904 461.267 274.595 432.599 247.555C430.437 245.517 429.275 246.584 427.483 247.91C422.313 251.74 417.896 256.349 413.765 261.178C378.914 301.923 354.541 348.125 340.713 400.004C332.493 430.874 331.029 461.69 336.733 493.189C340.836 515.811 350.848 535.63 361.311 555.695C378.627 588.931 403.247 615.589 432.106 638.704C439.752 644.818 447.152 651.574 456.753 655.855C456.78 652.162 454.578 650.261 453.046 648.223C446.044 638.977 438.111 630.347 431.874 620.622C421.041 603.73 408.923 587.796 397.434 571.383C365.688 526.029 356.141 476.393 372.76 423.42C384.727 385.246 404.929 351.189 432.913 322.111Z" fill="url(#paint9_linear)"/>
<path d="M669.8 929.169C687.608 939.769 707.249 944.447 727.163 948.154C769.864 956.073 808.229 943.339 844.434 921.92C857.414 914.247 867.672 903.51 875.003 890.325C880.857 879.794 885.918 868.811 891.457 858.101C893.933 853.314 892.579 851.468 887.313 851.468C874.333 851.454 861.339 851.44 848.346 851.098C810.856 850.114 774.898 841.223 739.418 829.83C701.613 817.698 664.876 802.94 628.931 786.144C627.522 785.487 626.086 784.858 622.995 783.463C627.208 788.989 631.721 791.382 635.702 794.35C639.709 797.332 643.812 800.245 648.094 802.844C676.529 820.078 705.115 837.038 734.809 852.111C752.59 861.138 771.314 866.089 790.996 867.99C794.402 868.318 797.807 868.633 801.199 869.07C802.69 869.262 804.714 868.947 805.152 870.917C805.508 872.463 803.866 873.187 802.827 873.994C788.37 885.401 772.408 893.663 754.709 899.161C715.154 911.416 682.643 896.877 652.908 872.859C632.214 856.132 616.129 835.014 600.906 813.307C600.017 812.049 599.046 810.846 597.213 808.438C595.38 810.846 594.409 812.049 593.52 813.307C578.297 835.014 562.212 856.132 541.518 872.859C511.783 896.877 479.272 911.416 439.717 899.161C422.018 893.663 406.057 885.402 391.599 873.994C390.56 873.187 388.919 872.463 389.274 870.917C389.712 868.947 391.736 869.262 393.227 869.07C396.619 868.633 400.025 868.318 403.43 867.99C423.112 866.089 441.837 861.138 459.618 852.111C489.311 837.038 517.897 820.078 546.333 802.844C550.614 800.245 554.717 797.332 558.725 794.35C562.705 791.383 567.219 788.989 571.431 783.463C568.34 784.858 566.904 785.487 565.495 786.144C529.551 802.94 492.813 817.698 455.008 829.83C419.529 841.223 383.571 850.114 346.081 851.098C333.087 851.44 320.094 851.454 307.114 851.468C301.848 851.468 300.494 853.314 302.969 858.101C308.509 868.811 313.569 879.794 319.424 890.325C326.755 903.51 337.013 914.247 349.993 921.92C386.197 943.339 424.563 956.073 467.264 948.154C487.178 944.447 506.819 939.769 524.627 929.169C549.753 914.206 568.34 892.924 584.274 869.057C590.777 859.314 595.172 849.021 597.214 837.957C599.255 849.021 603.65 859.314 610.152 869.057C626.086 892.924 644.674 914.206 669.8 929.169Z" fill="url(#paint10_linear)"/>
</g>
<defs>
<filter id="filter0_d" x="-4" y="0" width="1208" height="1208" filterUnits="userSpaceOnUse" color-interpolation-filters="sRGB">
<feFlood flood-opacity="0" result="BackgroundImageFix"/>
<feColorMatrix in="SourceAlpha" type="matrix" values="0 0 0 0 0 0 0 0 0 0 0 0 0 0 0 0 0 0 127 0"/>
<feOffset dy="4"/>
<feGaussianBlur stdDeviation="2"/>
<feColorMatrix type="matrix" values="0 0 0 0 0 0 0 0 0 0 0 0 0 0 0 0 0 0 0.25 0"/>
<feBlend mode="normal" in2="BackgroundImageFix" result="effect1_dropShadow"/>
<feBlend mode="normal" in="SourceGraphic" in2="effect1_dropShadow" result="shape"/>
</filter>
<linearGradient id="paint0_linear" x1="1099.5" y1="455.5" x2="279" y2="501" gradientUnits="userSpaceOnUse">
<stop stop-color="#A9BFF8"/>
<stop offset="1" stop-color="#2257E2" stop-opacity="0.87"/>
</linearGradient>
<linearGradient id="paint1_linear" x1="1129.5" y1="466" x2="189" y2="632.5" gradientUnits="userSpaceOnUse">
<stop stop-color="#B6C7F3"/>
<stop offset="1" stop-color="#2D63EE"/>
</linearGradient>
<linearGradient id="paint2_linear" x1="158.119" y1="740.553" x2="1047.5" y2="515.5" gradientUnits="userSpaceOnUse">
<stop stop-color="#3F70EF"/>
<stop offset="1" stop-color="#9EB7F6" stop-opacity="0.87"/>
</linearGradient>
<linearGradient id="paint3_linear" x1="148.5" y1="910.5" x2="1099.5" y2="477" gradientUnits="userSpaceOnUse">
<stop offset="0.0849619" stop-color="#1454F7"/>
<stop offset="0.912334" stop-color="#E0E8FC"/>
</linearGradient>
<linearGradient id="paint4_linear" x1="925" y1="842.5" x2="1143" y2="608" gradientUnits="userSpaceOnUse">
<stop stop-color="#9BB2EC"/>
<stop offset="1" stop-color="#82A5FF" stop-opacity="0"/>
</linearGradient>
<linearGradient id="paint5_linear" x1="1170.5" y1="447" x2="720.5" y2="812.5" gradientUnits="userSpaceOnUse">
<stop stop-color="#CBD6F1"/>
<stop offset="1" stop-color="#82A1F2"/>
</linearGradient>
<linearGradient id="paint6_linear" x1="1102" y1="327.5" x2="682.5" y2="632" gradientUnits="userSpaceOnUse">
<stop stop-color="#EAEFFD"/>
<stop offset="1" stop-color="#6486DF"/>
</linearGradient>
<linearGradient id="paint7_linear" x1="1015" y1="406.5" x2="660.5" y2="670.5" gradientUnits="userSpaceOnUse">
<stop stop-color="#CCD8F7"/>
<stop offset="1" stop-color="#91A8E5"/>
</linearGradient>
<linearGradient id="paint8_linear" x1="442.5" y1="537" x2="1037" y2="441.5" gradientUnits="userSpaceOnUse">
<stop stop-color="#527CE8"/>
<stop offset="0.963542" stop-color="#BDCEF9"/>
</linearGradient>
<linearGradient id="paint9_linear" x1="418.813" y1="246.417" x2="418.813" y2="655.855" gradientUnits="userSpaceOnUse">
<stop stop-color="#0A3CBB"/>
<stop offset="1" stop-color="#3A69E0" stop-opacity="0.87"/>
</linearGradient>
<linearGradient id="paint10_linear" x1="302" y1="997.5" x2="1026" y2="496" gradientUnits="userSpaceOnUse">
<stop stop-color="#2D65F4"/>
<stop offset="1" stop-color="#B9CAF4" stop-opacity="0.97"/>
</linearGradient>
</defs>
</svg>
                        

