<svg xmlns="http://www.w3.org/2000/svg" xmlns:xlink="http://www.w3.org/1999/xlink" version="1.1" x="0px" y="0px" viewBox="0 0 512 640" style="enable-background:new 0 0 512 512;" xml:space="preserve"><g><g><path d="M421.788,466.912l-13.295-41.281c-3.111-9.666-8.948-18.128-16.879-24.472c-7.745-6.197-12.694-15.417-13.576-25.298    l-5.55-62.155c-1.836-20.558-12.88-39.247-29.82-50.804v-26.44h-15.029v-22.043h-16.275L272.288,0H239.71l-39.076,214.419H184.36    v22.043h-15.029v26.44c-16.939,11.558-27.984,30.246-29.819,50.804l-5.55,62.155c-0.882,9.88-5.83,19.1-13.577,25.298    c-7.93,6.343-13.767,14.806-16.879,24.472l-13.294,41.281H58.114V512h395.773v-45.088H421.788z M252.25,15.029h7.501l9.13,50.098    h-25.761L252.25,15.029z M240.381,80.157h31.239l2.739,15.029h-36.717L240.381,80.157z M234.903,110.215h42.195l2.739,15.029    h-47.673L234.903,110.215z M229.424,140.274h53.151l2.739,15.029h-58.629L229.424,140.274z M223.946,170.333h64.107l2.739,15.029    h-69.585L223.946,170.333z M117.812,430.237c2.205-6.849,6.342-12.847,11.961-17.343c10.93-8.744,17.913-21.756,19.158-35.697    l5.55-62.155c1.537-17.212,11.329-32.747,26.195-41.556l3.684-2.183v-19.812h15.029v-22.043h13.784l5.295-29.057h75.063    l5.295,29.057h13.783v22.043h15.029v19.812l3.684,2.183c14.866,8.809,24.658,24.345,26.195,41.556l5.55,62.154    c1.244,13.942,8.227,26.954,19.158,35.698c5.619,4.496,9.755,10.492,11.961,17.343l11.81,36.675H106.002L117.812,430.237z     M438.857,496.971H73.143v-15.029h365.714V496.971z"/></g></g><g><g><rect x="141.777" y="436.853" width="60.117" height="15.029"/></g></g><g><g><rect x="216.924" y="436.853" width="15.029" height="15.029"/></g></g><g><g><rect x="246.982" y="436.853" width="15.029" height="15.029"/></g></g><g><g><rect x="329.786" y="334.262" transform="matrix(0.996 -0.0889 0.0889 0.996 -29.0485 31.3394)" width="15.029" height="15.029"/></g></g><g><g><path d="M342.549,316.38c-1.107-12.411-8.169-23.612-18.889-29.964l-7.661,12.93c6.572,3.894,10.901,10.76,11.581,18.371    l0.203,2.275l14.968-1.34L342.549,316.38z"/></g></g><g><g><rect x="332.429" y="364.228" transform="matrix(0.996 -0.0889 0.0889 0.996 -31.7034 31.6944)" width="15.029" height="15.029"/></g></g><g><g><rect x="364.735" y="426.897" transform="matrix(0.9519 -0.3065 0.3065 0.9519 -116.9578 135.2699)" width="15.029" height="26.312"/></g></g><g><g><rect x="159.332" y="325.618" transform="matrix(0.0889 -0.996 0.996 0.0889 -171.9132 478.3236)" width="32.342" height="15.029"/></g></g><g><g><rect x="164.548" y="364.182" transform="matrix(0.0889 -0.996 0.996 0.0889 -213.4589 510.0314)" width="15.029" height="15.029"/></g></g><g><g><rect x="268.22" y="215.723" transform="matrix(0.9838 -0.1793 0.1793 0.9838 -36.4932 53.1411)" width="15.029" height="25.462"/></g></g><g><g><rect x="180.853" y="407.796" width="90.176" height="15.029"/></g></g><g><g><rect x="316.117" y="407.796" width="15.029" height="15.029"/></g></g><g><g><rect x="286.059" y="407.796" width="15.029" height="15.029"/></g></g><g><g><rect x="215.922" y="259.507" width="50.098" height="15.029"/></g></g><g><g><rect x="281.049" y="259.507" width="15.029" height="15.029"/></g></g><text x="0" y="527" fill="#000000" font-size="5px" font-weight="bold" font-family="'Helvetica Neue', Helvetica, Arial-Unicode, Arial, Sans-serif">Created by Alfin Rahmat Setiawan</text><text x="0" y="532" fill="#000000" font-size="5px" font-weight="bold" font-family="'Helvetica Neue', Helvetica, Arial-Unicode, Arial, Sans-serif">from the Noun Project</text></svg>