<svg xmlns="http://www.w3.org/2000/svg" data-name="Layer 1" viewBox="0 0 512 640" x="0px" y="0px"><title>Menu</title><path d="M27.589,479.233a7.4,7.4,0,0,0,3.754,1.02,7.226,7.226,0,0,0,3.273-.782L182.3,403.1h0L325.09,479.427a7.016,7.016,0,0,0,6.5.054L483.963,401.42A7.223,7.223,0,0,0,488,395.192V38.747a7.3,7.3,0,0,0-10.538-6.228l-148.96,76.4L185.669,33.767a7.024,7.024,0,0,0-6.45-.043L28.06,110.57A7.225,7.225,0,0,0,24,116.808V473.253A7.224,7.224,0,0,0,27.589,479.233ZM321,461.211,189,390.943V51.5l132,69.174Zm153-70.294L335,462.143V121.432L474,50.206ZM38,121.1,175,51.433V390.984L38,461.752Z"/><path d="M362.954,192.9a6.969,6.969,0,0,0,3.19-.773l84.934-43.579a7,7,0,1,0-6.39-12.456l-84.935,43.579a7,7,0,0,0,3.2,13.229Z"/><path d="M362.954,242.245a6.971,6.971,0,0,0,3.19-.774l84.934-43.579a7,7,0,1,0-6.39-12.456l-84.935,43.579a7,7,0,0,0,3.2,13.23Z"/><path d="M444.688,234.784l-84.935,43.579a7,7,0,1,0,6.391,12.456l84.934-43.579a7,7,0,1,0-6.39-12.456Z"/><path d="M145.254,255.51,60.318,299.09a7,7,0,1,0,6.391,12.456l84.936-43.58a7,7,0,1,0-6.391-12.456Z"/><path d="M145.254,304.858l-84.936,43.58a7,7,0,1,0,6.391,12.456l84.936-43.58a7,7,0,1,0-6.391-12.456Z"/><path d="M298.538,231l-78.557-41.342a7,7,0,0,0-6.519,12.389l78.557,41.342A7,7,0,1,0,298.538,231Z"/><path d="M213.462,142.828l78.557,41.341a7,7,0,1,0,6.519-12.389l-78.557-41.342a7,7,0,0,0-6.519,12.39Z"/><path d="M151.874,117.59a6.786,6.786,0,0,0-6.732-.255l-84.637,43.58A6.736,6.736,0,0,0,57,167.143v59.218a6.782,6.782,0,0,0,3.107,5.973,6.583,6.583,0,0,0,3.528,1.027,6.762,6.762,0,0,0,3.135-.772l84.68-43.58a6.773,6.773,0,0,0,3.55-6.228V123.563A6.8,6.8,0,0,0,151.874,117.59ZM141,178.505,71,214.9V171.419l70-36.4Z"/><path d="M298.4,300.085l-78.487-41.341a6.676,6.676,0,0,0-6.7.2A6.842,6.842,0,0,0,210,264.938v69.088a6.875,6.875,0,0,0,3.6,6.195l78.487,41.341a6.871,6.871,0,0,0,3.225.805,6.468,6.468,0,0,0,3.462-1.008A6.859,6.859,0,0,0,302,375.367V306.279A6.873,6.873,0,0,0,298.4,300.085ZM288,363.773,224,329.8V276.532l64,33.974Z"/><text x="0" y="527" fill="#000000" font-size="5px" font-weight="bold" font-family="'Helvetica Neue', Helvetica, Arial-Unicode, Arial, Sans-serif">Created by Shastry</text><text x="0" y="532" fill="#000000" font-size="5px" font-weight="bold" font-family="'Helvetica Neue', Helvetica, Arial-Unicode, Arial, Sans-serif">from the Noun Project</text></svg>